<?xml version="1.0" standalone="no"?>
<!DOCTYPE svg PUBLIC "-//W3C//DTD SVG 20010904//EN"
 "http://www.w3.org/TR/2001/REC-SVG-20010904/DTD/svg10.dtd">
<svg version="1.0" xmlns="http://www.w3.org/2000/svg"
 width="48.000000pt" height="48.000000pt" viewBox="0 0 48.000000 48.000000"
 preserveAspectRatio="xMidYMid meet">
<metadata>
Created by potrace 1.15, written by Peter Selinger 2001-2017
</metadata>
<g transform="translate(0.000000,48.000000) scale(0.100000,-0.100000)"
fill="#000000" stroke="none">
<path d="M155 454 c-47 -17 -100 -65 -125 -114 -59 -116 -11 -264 103 -319 52
-25 150 -28 201 -7 89 37 157 156 142 248 -25 153 -178 244 -321 192z m186
-74 c17 -10 19 -22 19 -140 0 -153 3 -150 -120 -150 -123 0 -120 -3 -120 150
0 112 2 130 18 139 22 14 178 14 203 1z"/>
</g>
</svg>
